<svg width="27" height="27" viewBox="0 0 27 27" fill="none" xmlns="http://www.w3.org/2000/svg">
<path d="M3.62049 4.81621C3.54204 4.73777 3.47981 4.64463 3.43735 4.54214C3.3949 4.43964 3.37305 4.32978 3.37305 4.21884C3.37305 4.1079 3.3949 3.99804 3.43735 3.89554C3.47981 3.79304 3.54204 3.69991 3.62049 3.62146C3.69894 3.54302 3.79207 3.48079 3.89457 3.43833C3.99706 3.39588 4.10692 3.37402 4.21786 3.37402C4.32881 3.37402 4.43866 3.39588 4.54116 3.43833C4.64366 3.48079 4.73679 3.54302 4.81524 3.62146L13.4991 12.307L22.183 3.62146C22.2614 3.54302 22.3546 3.48079 22.4571 3.43833C22.5596 3.39588 22.6694 3.37402 22.7804 3.37402C22.8913 3.37402 23.0012 3.39588 23.1037 3.43833C23.2062 3.48079 23.2993 3.54302 23.3777 3.62146C23.4562 3.69991 23.5184 3.79304 23.5609 3.89554C23.6033 3.99804 23.6252 4.1079 23.6252 4.21884C23.6252 4.32978 23.6033 4.43964 23.5609 4.54214C23.5184 4.64463 23.4562 4.73777 23.3777 4.81621L14.6922 13.5001L23.3777 22.184C23.4562 22.2624 23.5184 22.3555 23.5609 22.458C23.6033 22.5605 23.6252 22.6704 23.6252 22.7813C23.6252 22.8923 23.6033 23.0021 23.5609 23.1046C23.5184 23.2071 23.4562 23.3003 23.3777 23.3787C23.2993 23.4572 23.2062 23.5194 23.1037 23.5618C23.0012 23.6043 22.8913 23.6262 22.7804 23.6262C22.6694 23.6262 22.5596 23.6043 22.4571 23.5618C22.3546 23.5194 22.2614 23.4572 22.183 23.3787L13.4991 14.6932L4.81524 23.3787C4.73679 23.4572 4.64366 23.5194 4.54116 23.5618C4.43866 23.6043 4.32881 23.6262 4.21786 23.6262C4.10692 23.6262 3.99706 23.6043 3.89457 23.5618C3.79207 23.5194 3.69894 23.4572 3.62049 23.3787C3.54204 23.3003 3.47981 23.2071 3.43735 23.1046C3.3949 23.0021 3.37305 22.8923 3.37305 22.7813C3.37305 22.6704 3.3949 22.5605 3.43735 22.458C3.47981 22.3555 3.54204 22.2624 3.62049 22.184L12.3061 13.5001L3.62049 4.81621Z" fill="white"/>
</svg>
