<svg width="99" height="38" viewBox="0 0 99 38" fill="none" xmlns="http://www.w3.org/2000/svg">
<path d="M3.83847 32.2941C2.519 32.2941 1.54938 31.9803 0.92963 31.3526C0.309877 30.725 0 29.8406 0 28.6994V11.1824H3.83847V29.3841H5.90765V32.2941H3.83847Z" fill="#94D6EB"/>
<path d="M15.1423 32.6365C13.9828 32.6365 12.9432 32.4558 12.0236 32.0944C11.1239 31.714 10.3542 31.191 9.7145 30.5253C9.09474 29.8406 8.61493 29.0227 8.27507 28.0718C7.9352 27.1018 7.76527 26.0176 7.76527 24.8194C7.76527 23.6402 7.92521 22.5751 8.24508 21.6241C8.58495 20.6731 9.06475 19.8648 9.68451 19.1991C10.3043 18.5144 11.064 17.9914 11.9636 17.63C12.8632 17.2496 13.8828 17.0594 15.0224 17.0594C16.2419 17.0594 17.3015 17.2591 18.2011 17.6585C19.1008 18.0579 19.8405 18.6 20.4202 19.2847C21 19.9694 21.4298 20.7682 21.7097 21.6812C22.0096 22.5751 22.1595 23.5356 22.1595 24.5626V25.7609H11.7537V26.1318C11.7537 27.2159 12.0736 28.0908 12.7133 28.7565C13.353 29.4031 14.3027 29.7265 15.5622 29.7265C16.5218 29.7265 17.3015 29.5363 17.9012 29.1559C18.521 28.7755 19.0708 28.2905 19.5506 27.7009L21.6198 29.8976C20.98 30.7535 20.1004 31.4287 18.9808 31.9232C17.8812 32.3987 16.6018 32.6365 15.1423 32.6365ZM15.0824 19.7982C14.0628 19.7982 13.2531 20.1216 12.6533 20.7682C12.0536 21.4149 11.7537 22.2518 11.7537 23.2788V23.5071H18.1711V23.2503C18.1711 22.2232 17.9012 21.3959 17.3615 20.7682C16.8417 20.1216 16.082 19.7982 15.0824 19.7982Z" fill="#94D6EB"/>
<path d="M23.4481 32.2941L28.786 24.7338L23.568 17.4018H27.9463L31.185 22.3374H31.305L34.5137 17.4018H38.5921L33.2842 24.7909L38.6221 32.2941H34.2438L30.9451 27.1588H30.8252L27.5265 32.2941H23.4481Z" fill="#94D6EB"/>
<path d="M41.4093 11.1824H45.2478V19.8838H45.3977C45.7176 19.085 46.2174 18.4193 46.8971 17.8868C47.5968 17.3352 48.5565 17.0594 49.776 17.0594C51.3953 17.0594 52.6348 17.5634 53.4945 18.5715C54.3542 19.5795 54.784 21.0155 54.784 22.8794V32.2941H50.9455V23.2503C50.9455 22.1852 50.7456 21.3864 50.3458 20.8538C49.9459 20.3213 49.2862 20.055 48.3665 20.055C47.9667 20.055 47.5769 20.1121 47.197 20.2262C46.8372 20.3213 46.5073 20.4734 46.2074 20.6826C45.9275 20.8728 45.6976 21.1201 45.5177 21.4244C45.3378 21.7097 45.2478 22.0521 45.2478 22.4515V32.2941H41.4093V11.1824Z" fill="#94D6EB"/>
<path d="M65.3665 32.6365C64.207 32.6365 63.1674 32.4558 62.2477 32.0944C61.3481 31.714 60.5784 31.191 59.9387 30.5253C59.3189 29.8406 58.8391 29.0227 58.4992 28.0718C58.1594 27.1018 57.9894 26.0176 57.9894 24.8194C57.9894 23.6402 58.1494 22.5751 58.4692 21.6241C58.8091 20.6731 59.2889 19.8648 59.9087 19.1991C60.5284 18.5144 61.2881 17.9914 62.1878 17.63C63.0874 17.2496 64.107 17.0594 65.2465 17.0594C66.4661 17.0594 67.5256 17.2591 68.4253 17.6585C69.3249 18.0579 70.0646 18.6 70.6444 19.2847C71.2242 19.9694 71.654 20.7682 71.9339 21.6812C72.2338 22.5751 72.3837 23.5356 72.3837 24.5626V25.7609H61.9779V26.1318C61.9779 27.2159 62.2977 28.0908 62.9375 28.7565C63.5772 29.4031 64.5268 29.7265 65.7863 29.7265C66.746 29.7265 67.5256 29.5363 68.1254 29.1559C68.7452 28.7755 69.2949 28.2905 69.7747 27.7009L71.8439 29.8976C71.2042 30.7535 70.3245 31.4287 69.205 31.9232C68.1054 32.3987 66.8259 32.6365 65.3665 32.6365ZM65.3065 19.7982C64.2869 19.7982 63.4773 20.1216 62.8775 20.7682C62.2777 21.4149 61.9779 22.2518 61.9779 23.2788V23.5071H68.3953V23.2503C68.3953 22.2232 68.1254 21.3959 67.5856 20.7682C67.0658 20.1216 66.3061 19.7982 65.3065 19.7982Z" fill="#94D6EB"/>
<path d="M79.5994 32.2941C78.2799 32.2941 77.3103 31.9803 76.6905 31.3526C76.0708 30.725 75.7609 29.8406 75.7609 28.6994V11.1824H79.5994V29.3841H81.6685V32.2941H79.5994Z" fill="#94D6EB"/>
<path d="M84.5757 17.4018H88.4142V19.8553H88.5342C88.814 18.9994 89.3438 18.3242 90.1235 17.8297C90.9032 17.3162 91.8129 17.0594 92.8524 17.0594C94.8517 17.0594 96.371 17.7346 97.4106 19.085C98.4702 20.4164 99 22.3278 99 24.8194C99 27.33 98.4702 29.2605 97.4106 30.6109C96.371 31.9613 94.8517 32.6365 92.8524 32.6365C91.8129 32.6365 90.9032 32.3797 90.1235 31.8662C89.3638 31.3526 88.834 30.6679 88.5342 29.8121H88.4142V38H84.5757V17.4018ZM91.6229 29.6124C92.6225 29.6124 93.4322 29.2985 94.052 28.6709C94.6717 28.0432 94.9816 27.1969 94.9816 26.1318V23.5641C94.9816 22.499 94.6717 21.6526 94.052 21.025C93.4322 20.3783 92.6225 20.055 91.6229 20.055C90.7033 20.055 89.9336 20.2737 89.3139 20.7112C88.7141 21.1486 88.4142 21.7287 88.4142 22.4515V27.1874C88.4142 27.9672 88.7141 28.5663 89.3139 28.9847C89.9336 29.4031 90.7033 29.6124 91.6229 29.6124Z" fill="#94D6EB"/>
<path d="M68.324 12.4381C68.1821 12.5323 68.082 12.6733 68.0431 12.8338C68.0043 12.9942 68.0294 13.1627 68.1136 13.3065L69.8283 16.1309C70.0042 16.4204 70.4077 16.54 70.7239 16.3927L75.9604 13.9799V22.6445H78.6064V12.759L83.9923 10.2757L80.5261 4.56144L68.324 12.4381ZM91.118 2.55263C90.405 1.37963 89.2316 0.523974 87.8558 0.173724C86.4799 -0.176526 85.0141 0.00729907 83.7807 0.684794C82.5767 1.34559 81.7856 2.3953 81.3979 3.56584L85.3352 10.0554C86.5934 10.3223 87.9455 10.1939 89.1521 9.5331C90.3857 8.85545 91.2859 7.73931 91.6546 6.43022C92.0233 5.12114 91.8303 3.72633 91.118 2.55263Z" fill="#94D6EB"/>
<path d="M76.5671 21.6416C76.5671 21.6808 76.5796 21.7162 76.5858 21.7519C76.5714 21.8566 76.5546 21.9613 76.5453 22.0691C76.5452 22.0753 76.5451 22.0811 76.5451 22.0865C76.5444 22.1328 76.5398 22.1779 76.5338 22.2223C76.5279 22.313 76.524 22.4035 76.523 22.4952C76.5223 22.5524 76.5291 22.6377 76.5009 22.6914C76.4729 22.7447 76.5009 22.5723 76.5009 22.5128C76.5009 22.4134 76.5207 22.3191 76.5338 22.2223C76.537 22.1725 76.5408 22.1227 76.5451 22.0725L76.5453 22.0691C76.5485 21.9063 76.5671 21.4986 76.5671 21.6416Z" fill="#94D6EB"/>
<path d="M75.7474 14.0527L79.0648 12.5338L79.3782 13.1534L76.0608 14.6723L75.7474 14.0527Z" fill="#94D6EB"/>
<path d="M76.687 14.8596C76.7325 14.8596 76.7704 14.8735 76.8086 14.8924C76.7927 14.9165 76.7777 14.9409 76.764 14.9657C76.7375 15.0135 76.7114 15.0603 76.6824 15.1068C76.6636 15.137 76.6594 15.176 76.636 15.2032C76.6046 15.2398 76.6207 15.1906 76.6207 15.1601V14.9759C76.6207 14.931 76.6182 14.8596 76.687 14.8596Z" fill="#94D6EB"/>
</svg>
