<svg width="565" height="15" viewBox="0 0 565 15" fill="none" xmlns="http://www.w3.org/2000/svg">
<path d="M275.243 13.216C274.427 13.216 273.689 13.078 273.029 12.802C272.381 12.514 271.823 12.1 271.355 11.56C270.899 11.008 270.545 10.33 270.293 9.526C270.041 8.71 269.915 7.774 269.915 6.718C269.915 5.662 270.041 4.732 270.293 3.928C270.545 3.124 270.899 2.446 271.355 1.894C271.823 1.342 272.381 0.927999 273.029 0.651999C273.689 0.363999 274.427 0.219999 275.243 0.219999C276.047 0.219999 276.779 0.363999 277.439 0.651999C278.099 0.927999 278.657 1.342 279.113 1.894C279.581 2.446 279.941 3.124 280.193 3.928C280.445 4.732 280.571 5.662 280.571 6.718C280.571 7.774 280.445 8.71 280.193 9.526C279.941 10.33 279.581 11.008 279.113 11.56C278.657 12.1 278.099 12.514 277.439 12.802C276.779 13.078 276.047 13.216 275.243 13.216ZM275.243 11.866C275.783 11.866 276.281 11.77 276.737 11.578C277.193 11.386 277.583 11.11 277.907 10.75C278.243 10.39 278.501 9.958 278.681 9.454C278.861 8.95 278.951 8.386 278.951 7.762V5.674C278.951 5.05 278.861 4.486 278.681 3.982C278.501 3.478 278.243 3.046 277.907 2.686C277.583 2.326 277.193 2.05 276.737 1.858C276.281 1.666 275.783 1.57 275.243 1.57C274.703 1.57 274.205 1.666 273.749 1.858C273.293 2.05 272.897 2.326 272.561 2.686C272.237 3.046 271.985 3.478 271.805 3.982C271.625 4.486 271.535 5.05 271.535 5.674V7.762C271.535 8.386 271.625 8.95 271.805 9.454C271.985 9.958 272.237 10.39 272.561 10.75C272.897 11.11 273.293 11.386 273.749 11.578C274.205 11.77 274.703 11.866 275.243 11.866ZM284.801 13H283.289V0.436H288.293C289.397 0.436 290.255 0.742 290.867 1.354C291.491 1.966 291.803 2.848 291.803 4C291.803 4.924 291.587 5.686 291.155 6.286C290.735 6.874 290.111 7.264 289.283 7.456L292.163 13H290.453L287.735 7.6H284.801V13ZM288.293 6.304C288.893 6.304 289.355 6.148 289.679 5.836C290.015 5.524 290.183 5.08 290.183 4.504V3.568C290.183 2.992 290.015 2.548 289.679 2.236C289.355 1.924 288.893 1.768 288.293 1.768H284.801V6.304H288.293Z" fill="white" fill-opacity="0.62"/>
<line y1="7.5" x2="251" y2="7.5" stroke="white" stroke-opacity="0.47"/>
<line x1="309" y1="7.5" x2="565" y2="7.50002" stroke="white" stroke-opacity="0.47"/>
</svg>
